<?xml version="1.0" encoding="utf-8"?>
<!-- Generator: Adobe Illustrator 24.0.2, SVG Export Plug-In . SVG Version: 6.00 Build 0)  -->
<svg version="1.1" id="Layer_1" xmlns="http://www.w3.org/2000/svg" xmlns:xlink="http://www.w3.org/1999/xlink" x="0px" y="0px"
	 viewBox="0 0 512 512" style="enable-background:new 0 0 512 512;" xml:space="preserve">
<style type="text/css">
	.st0{fill:#C5E9F9;}
	.st1{fill:#5E889E;}
</style>
<circle class="st0" cx="256.3281" cy="255.9678" r="248.873"/>
<g>
	<path class="st1" d="M304.7266,389.2782c0-3.9626-3.2378-7.1967-7.1967-7.1967h-82.8916c-3.9552,0-7.193,3.2341-7.193,7.1967l0,0
		c0,3.9534,3.2359,7.1967,7.193,7.1967h82.8916C301.4889,396.4749,304.7266,393.2316,304.7266,389.2782L304.7266,389.2782z"/>
	<path class="st1" d="M256.0878,132.9851c3.9589,0,7.1967-3.2341,7.1967-7.1967V79.4591c0-3.9608-3.2378-7.2023-7.1967-7.2023l0,0
		c-3.9589,0-7.1967,3.2396-7.1967,7.2023v46.3311C248.8911,129.751,252.1289,132.9851,256.0878,132.9851L256.0878,132.9851z"/>
	<path class="st1" d="M318.1807,149.6233c3.4301,1.9748,7.8476,0.7951,9.8298-2.635l23.1674-40.1237
		c1.9786-3.4301,0.7914-7.8513-2.6368-9.828l0,0c-3.4245-1.9785-7.8494-0.7951-9.828,2.635l-23.1656,40.12
		C313.569,143.2236,314.7543,147.6485,318.1807,149.6233L318.1807,149.6233z"/>
	<path class="st1" d="M363.6354,195.0854c1.9748,3.4208,6.4034,4.6117,9.8298,2.635l40.1274-23.1767
		c3.4282-1.9748,4.6135-6.396,2.635-9.8224l0,0c-1.9786-3.4301-6.4034-4.6172-9.8298-2.635l-40.1237,23.1674
		C362.8402,187.2285,361.6568,191.6516,363.6354,195.0854L363.6354,195.0854z"/>
	<path class="st1" d="M380.2736,257.1746c0,3.9626,3.2433,7.2022,7.1949,7.1967h46.3348c3.959,0,7.1967-3.2341,7.1967-7.1967l0,0
		c0-3.9515-3.2378-7.193-7.1967-7.193h-46.3348C383.504,249.9816,380.2736,253.223,380.2736,257.1746L380.2736,257.1746z"/>
	<path class="st1" d="M193.9912,149.6233c3.4301-1.9748,4.6154-6.3997,2.6387-9.8317l-23.1693-40.1292
		c-1.9822-3.4208-6.3997-4.6043-9.8317-2.6257l0,0c-3.4264,1.9767-4.608,6.3979-2.6294,9.828l23.1674,40.1237
		C186.1455,150.4184,190.5686,151.5982,193.9912,149.6233L193.9912,149.6233z"/>
	<path class="st1" d="M148.5366,195.0854c1.9859-3.4338,0.7988-7.8568-2.6294-9.8317l-40.1292-23.1729
		c-3.4245-1.9748-7.8494-0.7877-9.8335,2.635l0,0c-1.9748,3.4301-0.784,7.8457,2.6387,9.828l40.1292,23.1674
		C142.1424,199.6878,146.558,198.5044,148.5366,195.0854L148.5366,195.0854z"/>
	<path class="st1" d="M131.9021,257.1746c0-3.9626-3.2378-7.193-7.1893-7.2023H78.3742c-3.9589,0.0092-7.1967,3.2396-7.1967,7.2023
		l0,0c0,3.9552,3.2378,7.1967,7.1967,7.1967h46.3404C128.6643,264.3713,131.9021,261.1298,131.9021,257.1746L131.9021,257.1746z"/>
	<path class="st1" d="M304.7266,409.0377c0-3.9608-3.2378-7.1949-7.1967-7.1949h-82.8916c-3.9552,0-7.193,3.2341-7.193,7.1949l0,0
		c0,3.959,3.2359,7.193,7.193,7.193h82.8916C301.4889,416.2307,304.7266,412.9966,304.7266,409.0377L304.7266,409.0377z"/>
	<path class="st1" d="M231.7851,421.6024c3.3783,10.2015,12.9752,17.5609,24.3028,17.5609s20.9207-7.3594,24.2972-17.5609H231.7851z
		"/>
	<path class="st1" d="M256.0878,155.8622c-55.9502,0-101.3087,45.3622-101.3087,101.3124c0,29.7373,12.8235,56.5031,33.2487,75.0348
		c0.0425,0.024,3.0473,2.5536,4.5081,3.8221c9.6024,8.3394,14.9186,21.2055,14.9186,34.9277h97.2573
		c0-13.7222,5.3217-26.5883,14.9185-34.9277c1.4626-1.2704,4.4693-3.7999,4.5136-3.8221
		c20.4215-18.5317,33.2451-45.2975,33.2451-75.0348C357.3928,201.2244,312.038,155.8622,256.0878,155.8622z M263.1292,305.0534
		v9.0551c0,1.7659-0.6749,3.5299-2.0211,4.8853c-1.3499,1.348-3.1194,2.0211-4.8853,2.0211h-1.5255
		c-1.7659,0-3.5336-0.6712-4.8779-2.0211c-1.348-1.3535-2.0285-3.1194-2.0285-4.8853v-7.953
		c-10.4807-0.4697-20.6526-3.284-26.5938-6.7326l4.6893-18.3098c6.5754,3.6039,15.8043,6.8898,25.9799,6.8898
		c8.9127,0,15.0184-3.4412,15.0184-9.7078c0-5.9449-5.0037-9.693-16.5901-13.6057c-16.7399-5.6342-28.1637-13.4578-28.1637-28.6407
		c0-13.7703,9.7059-24.5709,26.4459-27.8549v-7.9585c0-1.7659,0.6731-3.5373,2.0211-4.8779
		c1.3517-1.348,3.1157-2.0211,4.8853-2.0211h1.5218c1.7659,0,3.5299,0.6731,4.8853,2.0211c1.348,1.3424,2.0211,3.112,2.0211,4.8779
		v6.8676c10.4826,0.4697,17.5277,2.659,22.6903,5.1645l-4.5377,17.683c-4.0662-1.7252-11.2629-5.3217-22.5332-5.3217
		c-10.1756,0-13.4578,4.3842-13.4578,8.7629c0,5.1627,5.477,8.4504,18.7776,13.4541c18.6223,6.5736,26.1297,15.1774,26.1297,29.262
		C290.9804,290.035,281.121,301.9303,263.1292,305.0534z"/>
</g>
</svg>
